<svg xmlns="http://www.w3.org/2000/svg" xmlns:xlink="http://www.w3.org/1999/xlink" viewBox="49.923 41.923 249.054 15.669">
  <defs>
    <style>
      .cls-1, .cls-10, .cls-11, .cls-12, .cls-13, .cls-2, .cls-3, .cls-4, .cls-5, .cls-6, .cls-7, .cls-8, .cls-9 {
        stroke: #95989a;
        stroke-miterlimit: 10;
        stroke-width: 0.154px;
      }

      .cls-1 {
        fill: url(#linear-gradient);
      }

      .cls-2 {
        fill: url(#linear-gradient-2);
      }

      .cls-3 {
        fill: url(#linear-gradient-3);
      }

      .cls-4 {
        fill: url(#linear-gradient-4);
      }

      .cls-5 {
        fill: url(#linear-gradient-5);
      }

      .cls-6 {
        fill: url(#linear-gradient-6);
      }

      .cls-7 {
        fill: url(#linear-gradient-7);
      }

      .cls-8 {
        fill: url(#linear-gradient-8);
      }

      .cls-9 {
        fill: url(#linear-gradient-9);
      }

      .cls-10 {
        fill: url(#linear-gradient-10);
      }

      .cls-11 {
        fill: url(#linear-gradient-11);
      }

      .cls-12 {
        fill: url(#linear-gradient-12);
      }

      .cls-13 {
        fill: url(#linear-gradient-13);
      }
    </style>
    <linearGradient id="linear-gradient" x1="0.496" y1="0.99" x2="0.496" y2="0.005" gradientUnits="objectBoundingBox">
      <stop offset="0" stop-color="#a99789"/>
      <stop offset="1" stop-color="#978171"/>
    </linearGradient>
    <linearGradient id="linear-gradient-2" x1="0.495" y1="1.001" x2="0.495" y2="-0.002" xlink:href="#linear-gradient"/>
    <linearGradient id="linear-gradient-3" x1="0.504" y1="1" x2="0.504" y2="-0.002" xlink:href="#linear-gradient"/>
    <linearGradient id="linear-gradient-4" x1="0.497" y1="1.002" x2="0.497" y2="0.005" xlink:href="#linear-gradient"/>
    <linearGradient id="linear-gradient-5" x1="0.503" y1="0.998" x2="0.503" y2="-0.002" xlink:href="#linear-gradient"/>
    <linearGradient id="linear-gradient-6" x1="0.52" y1="0.991" x2="0.52" y2="0.008" xlink:href="#linear-gradient"/>
    <linearGradient id="linear-gradient-7" x1="0.485" y1="1.001" x2="0.485" y2="0.005" xlink:href="#linear-gradient"/>
    <linearGradient id="linear-gradient-8" x1="0.516" y1="1" x2="0.516" y2="-0.002" xlink:href="#linear-gradient"/>
    <linearGradient id="linear-gradient-9" x1="0.504" y1="1.001" x2="0.504" y2="-0.002" xlink:href="#linear-gradient"/>
    <linearGradient id="linear-gradient-10" x1="0.498" y1="1.001" x2="0.498" y2="-0.014" xlink:href="#linear-gradient"/>
    <linearGradient id="linear-gradient-11" x1="0.491" y1="0.984" x2="0.491" y2="0.005" xlink:href="#linear-gradient"/>
    <linearGradient id="linear-gradient-12" x1="0.488" y1="1.091" x2="0.488" y2="0.084" xlink:href="#linear-gradient"/>
    <linearGradient id="linear-gradient-13" x1="0.493" y1="1.091" x2="0.493" y2="0.084" xlink:href="#linear-gradient"/>
  </defs>
  <g id="Group_4" data-name="Group 4" transform="translate(49.9 42)">
    <g id="Group_3" data-name="Group 3" transform="translate(0.1 0)">
      <path id="Path_14" data-name="Path 14" class="cls-1" d="M1.733,5.916V1.67c0-.653-.163-.98-.817-1.143H.263A.16.16,0,0,1,.1.363C.1.2.263.2.427.2H5a6.5,6.5,0,0,1,3.593.817A4.9,4.9,0,0,1,9.9,3.793c0,1.47-.653,2.94-2.45,4.573,1.633,2.123,2.94,3.756,4.083,5.063a4.477,4.477,0,0,0,2.45,1.47H14.8c.163,0,.163,0,.163.163s-.163.163-.49.163H13a5.675,5.675,0,0,1-2.123-.327,19.446,19.446,0,0,1-2.613-3.1,21.046,21.046,0,0,1-2.123-2.94.57.57,0,0,0-.327-.163H3.366c-.163,0-.163,0-.163.163v.49a27.933,27.933,0,0,0,.163,4.246,1.045,1.045,0,0,0,.817,1.143H5c.163,0,.163,0,.163.163s-.163.163-.327.163H.59c-.163,0-.327,0-.327-.163a.16.16,0,0,1,.163-.163H1.08c.49-.163.49-.49.653-1.143V5.916Zm1.633,1.8c0,.163,0,.163.163.163A4.691,4.691,0,0,0,5.49,8.2a2.427,2.427,0,0,0,1.47-.327,3.958,3.958,0,0,0,1.307-3.1c0-2.45-1.307-3.92-3.43-3.92-.653,0-1.143,0-1.307.163a.16.16,0,0,0-.163.163V7.713Z" transform="translate(-0.1 0.127)"/>
      <path id="Path_15" data-name="Path 15" class="cls-2" d="M18.3,9.409c-.163,0-.163,0-.163.163L16.993,13a5.049,5.049,0,0,0-.327,1.307c0,.327.327.49.653.49h.163c.163,0,.327,0,.327.163s-.163.163-.327.163H13.727c-.327,0-.327,0-.327-.163a.57.57,0,0,1,.327-.163h.49c.98-.163,1.307-.817,1.633-1.8L20.259.917c.163-.653.327-.817.49-.817s.163.163.49.653c.327.817,3.43,8.819,4.573,11.759.653,1.8,1.307,2.123,1.633,2.123a1.776,1.776,0,0,0,.817.163c.163,0,.163,0,.163.163s-.163.163-.327.163H25c-.327,0-.653,0-.653-.163a.16.16,0,0,1,.163-.163c.163,0,.163-.163.163-.49l-1.8-4.9a.16.16,0,0,0-.163-.163H18.3Zm3.92-.817h0l-1.8-5.39c-.163-.327-.163-.327-.327,0L18.3,8.429v.163h3.92Z" transform="translate(8.322 0.063)"/>
      <path id="Path_16" data-name="Path 16" class="cls-3" d="M29.77,9.409V1.08c0-.817,0-.98.163-.98s.49.49.653.653c.327.327,3.266,3.43,6.206,6.7,1.96,2.123,4.083,4.41,4.736,5.063L41.366,2.55c0-1.307-.163-1.633-.817-1.8A7.073,7.073,0,0,1,39.732.59c-.163,0-.327,0-.327-.163s.163-.163.327-.163h3.593c.163,0,.327,0,.327.163a.16.16,0,0,1-.163.163H43c-.327.163-.49.49-.49,1.8V13.819c0,1.307,0,1.47-.163,1.47s-.327-.163-1.47-1.307c-.163-.163-3.1-3.1-5.063-5.39-2.286-2.45-4.41-4.9-5.063-5.553l.327,9.309c0,1.633.163,2.123.817,2.286a2.427,2.427,0,0,0,.98.163c.163,0,.163,0,.163.163s-.163.163-.327.163H28.627c-.163,0-.327,0-.327-.163a.16.16,0,0,1,.163-.163,1.776,1.776,0,0,0,.817-.163c.49-.163.653-.653.653-2.45V9.409Z" transform="translate(17.756 0.063)"/>
      <path id="Path_17" data-name="Path 17" class="cls-4" d="M46.533,5.917V1.671c0-.653-.163-.98-.817-1.143h-.653c-.163,0-.163,0-.163-.163S45.063.2,45.227.2h4.9c1.96,0,5.553-.163,7.839,2.286a6.826,6.826,0,0,1,1.96,4.9A7.89,7.89,0,0,1,57.8,12.94a7.94,7.94,0,0,1-5.88,2.286,15.845,15.845,0,0,1-2.776-.163,12.611,12.611,0,0,1-1.633-.163h-1.96c-.163,0-.327,0-.327-.163a.16.16,0,0,1,.163-.163h.49c.327,0,.49-.49.49-1.143a29.124,29.124,0,0,0,.163-4.246Zm1.8,2.123v4.246a3.625,3.625,0,0,0,.163,1.47c.327.327.98.817,3.266.817a7.115,7.115,0,0,0,4.736-1.8A7.209,7.209,0,0,0,58.129,8.04a6.87,6.87,0,0,0-1.96-4.9C54.373,1.181,52.086.854,49.8.854a3.184,3.184,0,0,0-1.307.163c-.163.163-.163.163-.163.49V8.04Z" transform="translate(28.267 0.126)"/>
      <path id="Path_18" data-name="Path 18" class="cls-5" d="M60.3,7.776A7.61,7.61,0,0,1,67.976.1c4.41,0,7.676,2.776,7.676,7.349a7.679,7.679,0,0,1-7.839,8C62.586,15.452,60.3,11.206,60.3,7.776Zm13.556.163c0-4.736-2.94-7.186-5.88-7.186-3.266,0-5.716,2.123-5.716,6.369,0,4.573,2.776,7.513,6.206,7.513C70.263,14.635,73.856,13.656,73.856,7.939Z" transform="translate(38.019 0.063)"/>
      <path id="Path_19" data-name="Path 19" class="cls-6" d="M93.039,12.739c0,.653.163,1.8.98,2.123a3.679,3.679,0,0,0,1.143.163c.163,0,.163,0,.163.163s0,.163-.327.163a26.511,26.511,0,0,1-3.43-.163c-.49,0-.49-.163-.49-.163a.16.16,0,0,1,.163-.163c.163,0,.163-.327,0-.653L90.262,3.92l-4.9,10.289c-.49.817-.49.98-.653.98s-.163-.163-.653-.98c-.49-.98-2.123-4.41-2.286-4.573-.163-.327-2.45-5.226-2.613-5.716l-.817,9.146v.98c0,.49.163.653.49.653h.653c.163,0,.163,0,.163.163s-.163.163-.327.163H75.727c-.163,0-.327,0-.327-.163l.163-.163h.653c.653-.163.653-.817.817-1.633L78.5.327A.57.57,0,0,1,78.666,0c.163,0,.163,0,.327.327l6.043,12.249L90.752.327A.351.351,0,0,1,91.079,0c.163,0,.163.163.163.49Z" transform="translate(47.58 0)"/>
      <path id="Path_20" data-name="Path 20" class="cls-7" d="M95.87,5.916V1.67c0-.653-.163-.98-.653-1.143h-.653A.16.16,0,0,1,94.4.363C94.4.2,94.563.2,94.727.2h3.92c.163,0,.327,0,.327.163a.16.16,0,0,1-.163.163h-.49c-.49.163-.653.49-.653,1.143V9.346a27.934,27.934,0,0,0,.163,4.246,1.045,1.045,0,0,0,.817,1.143h.817c.163,0,.163,0,.163.163s0,.163-.327.163H94.89c-.163,0-.327,0-.327-.163a.16.16,0,0,1,.163-.163h.49c.327,0,.49-.49.653-1.143a29.125,29.125,0,0,0,.163-4.246V5.916Z" transform="translate(59.611 0.127)"/>
      <path id="Path_21" data-name="Path 21" class="cls-8" d="M105.833,9.409V1.08c0-.817,0-.98.163-.98s.49.49.653.653c.327.327,3.266,3.43,6.206,6.7,1.96,2.123,4.083,4.41,4.736,5.063l-.163-9.963c0-1.307-.163-1.633-.817-1.8A7.075,7.075,0,0,1,115.8.59c-.163,0-.327,0-.327-.163s.163-.163.327-.163h3.593c.163,0,.327,0,.327.163a.16.16,0,0,1-.163.163h-.49c-.49.163-.653.49-.653,1.8V13.819c0,1.307,0,1.47-.163,1.47s-.327-.163-1.47-1.307c-.163-.163-3.1-3.1-5.063-5.39-2.286-2.45-4.41-4.9-5.063-5.553l.327,9.309c0,1.633.163,2.123.817,2.286a2.427,2.427,0,0,0,.98.163c.163,0,.163,0,.163.163s-.163.163-.327.163h-4.083c-.163,0-.327,0-.327-.163a.16.16,0,0,1,.163-.163,1.776,1.776,0,0,0,.817-.163c.49-.163.653-.653.653-2.45Z" transform="translate(65.816 0.063)"/>
      <path id="Path_22" data-name="Path 22" class="cls-9" d="M124.763,9.409c-.163,0-.163,0-.163.163L123.293,13a5.048,5.048,0,0,0-.327,1.307c0,.327.327.49.653.49h.163c.163,0,.327,0,.327.163s-.163.163-.327.163h-3.756c-.327,0-.327,0-.327-.163a.57.57,0,0,1,.327-.163h.49c.98-.163,1.307-.817,1.633-1.8L126.559.917c.163-.653.327-.817.49-.817s.163.163.49.653c.327.817,3.43,8.819,4.573,11.759.653,1.8,1.307,2.123,1.633,2.123a1.776,1.776,0,0,0,.817.163c.163,0,.163,0,.163.163s-.163.163-.327.163h-3.1c-.327,0-.653,0-.653-.163a.16.16,0,0,1,.163-.163c.163,0,.163-.163.163-.49l-1.8-4.9a.16.16,0,0,0-.163-.163h-4.246Zm3.92-.817h0l-1.8-5.39c-.163-.327-.163-.327-.327,0l-1.8,5.226v.163h3.92Z" transform="translate(75.631 0.063)"/>
      <path id="Path_23" data-name="Path 23" class="cls-10" d="M140.586,9.346a27.931,27.931,0,0,0,.163,4.246,1.045,1.045,0,0,0,.817,1.143h.817c.163,0,.163,0,.163.163s-.163.163-.327.163h-4.41c-.163,0-.327,0-.327-.163a.16.16,0,0,1,.163-.163h.653c.327,0,.49-.49.49-1.143a29.122,29.122,0,0,0,.163-4.246V1.18h-2.94c-1.143,0-1.633.163-1.96.653-.163.327-.327.49-.327.653a.163.163,0,0,1-.327,0,6.892,6.892,0,0,1,.49-1.96A.57.57,0,0,1,134.053.2a3.323,3.323,0,0,0,.817.163c.49,0,1.307.163,1.47.163h7.349a3.625,3.625,0,0,0,1.47-.163.715.715,0,0,0,.49-.163.16.16,0,0,1,.163.163V2.486c0,.163,0,.327-.163.327s-.163,0-.163-.327V2.323c0-.653-.49-.98-2.45-1.143h-2.45V9.346Z" transform="translate(84.306 0.127)"/>
      <path id="Path_24" data-name="Path 24" class="cls-11" d="M148.733,5.98V1.733c0-.653-.163-.98-.817-1.143h-.49c-.163,0-.327,0-.327-.163s.163-.163.327-.163h6.7c.49,0,.817,0,.98-.163h.163V.263a3.56,3.56,0,0,0-.163.98V2.386c0,.163,0,.327-.163.327s-.163-.163-.163-.327c0-.327,0-.49-.163-.653-.163-.49-.49-.653-1.47-.653H150.53a.16.16,0,0,0-.163.163v5.39c0,.163,0,.163.163.163h3.1a1.381,1.381,0,0,0,.98-.327l.163-.163a.16.16,0,0,1,.163.163,5.8,5.8,0,0,0-.163,1.143V8.919c0,.163,0,.327-.163.327s-.163-.163-.163-.327v-.49c0-.327-.327-.49-.98-.653-.49,0-2.45-.163-2.776-.163-.163,0-.163,0-.163.163V13c0,.817.163,1.307.653,1.47a4.1,4.1,0,0,0,1.633.163,6.124,6.124,0,0,0,1.8-.163c.653-.163.817-.653.98-1.47,0-.163,0-.327.163-.327s.163.163.163.327a12.063,12.063,0,0,1-.327,1.96c-.163.49-.327.49-.98.49h-6.859c-.163,0-.327,0-.327-.163l.163-.163h.49c.49-.163.653-.327.653-1.8V5.98Z" transform="translate(92.981 0.063)"/>
    </g>
    <path id="Path_25" data-name="Path 25" class="cls-12" d="M125.3,5.3h6.533l-6.206.817Z" transform="translate(79.277 3.356)"/>
    <path id="Path_26" data-name="Path 26" class="cls-13" d="M18.9,5.3h6.533l-6.206.817Z" transform="translate(11.904 3.356)"/>
  </g>
</svg>
